<svg width="253" height="53" viewBox="0 0 253 53" fill="none" xmlns="http://www.w3.org/2000/svg">
<g clip-path="url(#clip0_104_39)">
<mask id="path-1-inside-1_104_39" fill="white">
<path d="M0 0H253V53H0V0Z"/>
</mask>
<path d="M3.162 67V12.6H10.982L10.88 25.622L9.656 38.678H11.118L14.926 25.01L19.244 12.6H27.302L18.734 35.958L27.914 67H20.434L13.906 44.288L10.642 51.972V67H3.162ZM31.7831 67V12.6H39.1271V67H31.7831ZM45.4628 67V12.6H56.6828L60.2188 29.872L64.4008 60.472H66.0668L64.7068 33.884L64.1628 12.6H71.3028V67H59.5728L55.8328 48.334L52.5008 19.094H50.7328L51.9908 46.396L52.5688 67H45.4628ZM88.9934 67.578C84.9134 67.578 81.9667 66.7167 80.1534 64.994C78.3627 63.2487 77.4334 60.3587 77.3654 56.324C77.2974 53.604 77.2521 50.8613 77.2294 48.096C77.2067 45.3307 77.1954 42.5653 77.1954 39.8C77.1954 37.012 77.2067 34.2467 77.2294 31.504C77.2521 28.7387 77.2974 25.9847 77.3654 23.242C77.4334 19.23 78.3627 16.3627 80.1534 14.64C81.9667 12.8947 84.9134 12.022 88.9934 12.022C93.0734 12.022 95.9974 12.8947 97.7654 14.64C99.5561 16.3627 100.497 19.23 100.587 23.242C100.678 26.0073 100.735 28.7727 100.757 31.538C100.803 34.3033 100.825 37.0687 100.825 39.834C100.825 42.5993 100.803 45.3647 100.757 48.13C100.735 50.8727 100.678 53.604 100.587 56.324C100.497 60.3587 99.5561 63.2487 97.7654 64.994C95.9974 66.7167 93.0734 67.578 88.9934 67.578ZM88.9934 61.492C90.4441 61.492 91.5094 61.186 92.1894 60.574C92.8694 59.9393 93.2207 58.9533 93.2434 57.616C93.3567 54.8053 93.4247 51.8927 93.4474 48.878C93.4927 45.8407 93.5154 42.7807 93.5154 39.698C93.5154 36.6153 93.4927 33.578 93.4474 30.586C93.4021 27.594 93.3341 24.7153 93.2434 21.95C93.2207 20.6127 92.8581 19.638 92.1554 19.026C91.4754 18.3913 90.4214 18.074 88.9934 18.074C87.5654 18.074 86.5001 18.3913 85.7974 19.026C85.1174 19.638 84.7547 20.6127 84.7094 21.95C84.6187 24.7153 84.5394 27.594 84.4714 30.586C84.4261 33.578 84.4034 36.6153 84.4034 39.698C84.4261 42.7807 84.4601 45.8407 84.5054 48.878C84.5507 51.8927 84.6187 54.8053 84.7094 57.616C84.7547 58.9533 85.1174 59.9393 85.7974 60.574C86.5001 61.186 87.5654 61.492 88.9934 61.492ZM111.057 67V19.128H103.237V12.6H126.255V19.128H118.435V67H111.057ZM129.799 67V12.6H149.213V19.128H137.143V36.196H148.533V42.724H137.143V60.472H149.213V67H129.799ZM153.904 67V12.6H161.724L161.622 25.622L160.398 38.678H161.86L165.668 25.01L169.986 12.6H178.044L169.476 35.958L178.656 67H171.176L164.648 44.288L161.384 51.972V67H153.904ZM182.525 67V12.6H189.869V67H182.525ZM196.205 67V12.6H207.425L210.961 29.872L215.143 60.472H216.809L215.449 33.884L214.905 12.6H222.045V67H210.315L206.575 48.334L203.243 19.094H201.475L202.733 46.396L203.311 67H196.205ZM226.272 67L232.936 12.6H245.176L251.84 67H244.326L243.034 53.434H235.078L233.82 67H226.272ZM235.792 46.906H242.354L241.198 34.938L240.008 19.128H238.104L236.948 34.938L235.792 46.906Z" fill="#666666"/>
</g>
<path d="M253 53V52H0V53V54H253V53Z" fill="#666666" mask="url(#path-1-inside-1_104_39)"/>
<defs>
<clipPath id="clip0_104_39">
<path d="M0 0H253V53H0V0Z" fill="white"/>
</clipPath>
</defs>
</svg>
