<svg width="249" height="56" viewBox="0 0 249 56" fill="none" xmlns="http://www.w3.org/2000/svg">
<path d="M-2.48849e-06 54.978V0.577996H7.82L7.718 13.6L6.494 26.656H7.956L11.764 12.988L16.082 0.577996H24.14L15.572 23.936L24.752 54.978H17.272L10.744 32.266L7.48 39.95V54.978H-2.48849e-06ZM28.6211 54.978V0.577996H35.9651V54.978H28.6211ZM42.3008 54.978V0.577996H53.5208L57.0568 17.85L61.2388 48.45H62.9048L61.5448 21.862L61.0008 0.577996H68.1408V54.978H56.4108L52.6708 36.312L49.3388 7.072H47.5708L48.8288 34.374L49.4068 54.978H42.3008ZM85.8314 55.556C81.7514 55.556 78.8047 54.6947 76.9914 52.972C75.2007 51.2267 74.2714 48.3367 74.2034 44.302C74.1354 41.582 74.0901 38.8393 74.0674 36.074C74.0447 33.3087 74.0334 30.5433 74.0334 27.778C74.0334 24.99 74.0447 22.2247 74.0674 19.482C74.0901 16.7167 74.1354 13.9627 74.2034 11.22C74.2714 7.20799 75.2007 4.34066 76.9914 2.61799C78.8047 0.87266 81.7514 -6.67572e-06 85.8314 -6.67572e-06C89.9114 -6.67572e-06 92.8354 0.87266 94.6034 2.61799C96.3941 4.34066 97.3347 7.20799 97.4254 11.22C97.5161 13.9853 97.5727 16.7507 97.5954 19.516C97.6407 22.2813 97.6634 25.0467 97.6634 27.812C97.6634 30.5773 97.6407 33.3427 97.5954 36.108C97.5727 38.8507 97.5161 41.582 97.4254 44.302C97.3347 48.3367 96.3941 51.2267 94.6034 52.972C92.8354 54.6947 89.9114 55.556 85.8314 55.556ZM85.8314 49.47C87.2821 49.47 88.3474 49.164 89.0274 48.552C89.7074 47.9173 90.0587 46.9313 90.0814 45.594C90.1947 42.7833 90.2627 39.8707 90.2854 36.856C90.3307 33.8187 90.3534 30.7587 90.3534 27.676C90.3534 24.5933 90.3307 21.556 90.2854 18.564C90.2401 15.572 90.1721 12.6933 90.0814 9.928C90.0587 8.59066 89.6961 7.616 88.9934 7.004C88.3134 6.36933 87.2594 6.052 85.8314 6.052C84.4034 6.052 83.3381 6.36933 82.6354 7.004C81.9554 7.616 81.5927 8.59066 81.5474 9.928C81.4567 12.6933 81.3774 15.572 81.3094 18.564C81.2641 21.556 81.2414 24.5933 81.2414 27.676C81.2641 30.7587 81.2981 33.8187 81.3434 36.856C81.3887 39.8707 81.4567 42.7833 81.5474 45.594C81.5927 46.9313 81.9554 47.9173 82.6354 48.552C83.3381 49.164 84.4034 49.47 85.8314 49.47ZM107.895 54.978V7.10599H100.075V0.577996H123.093V7.10599H115.273V54.978H107.895ZM126.637 54.978V0.577996H146.051V7.10599H133.981V24.174H145.371V30.702H133.981V48.45H146.051V54.978H126.637ZM150.742 54.978V0.577996H158.562L158.46 13.6L157.236 26.656H158.698L162.506 12.988L166.824 0.577996H174.882L166.314 23.936L175.494 54.978H168.014L161.486 32.266L158.222 39.95V54.978H150.742ZM179.363 54.978V0.577996H186.707V54.978H179.363ZM193.043 54.978V0.577996H204.263L207.799 17.85L211.981 48.45H213.647L212.287 21.862L211.743 0.577996H218.883V54.978H207.153L203.413 36.312L200.081 7.072H198.313L199.571 34.374L200.149 54.978H193.043ZM223.11 54.978L229.774 0.577996H242.014L248.678 54.978H241.164L239.872 41.412H231.916L230.658 54.978H223.11ZM232.63 34.884H239.192L238.036 22.916L236.846 7.10599H234.942L233.786 22.916L232.63 34.884Z" fill="#666666"/>
<path d="M85.8314 55.556C81.7514 55.556 78.8047 54.6947 76.9914 52.972C75.2007 51.2267 74.2714 48.3367 74.2034 44.302C74.1354 41.582 74.0901 38.8393 74.0674 36.074C74.0447 33.3087 74.0334 30.5433 74.0334 27.778C74.0334 24.99 74.0447 22.2247 74.0674 19.482C74.0901 16.7167 74.1354 13.9627 74.2034 11.22C74.2714 7.20799 75.2007 4.34066 76.9914 2.61799C78.8047 0.87266 81.7514 -6.67572e-06 85.8314 -6.67572e-06C89.9114 -6.67572e-06 92.8354 0.87266 94.6034 2.61799C96.3941 4.34066 97.3347 7.20799 97.4254 11.22C97.5161 13.9853 97.5727 16.7507 97.5954 19.516C97.6407 22.2813 97.6634 25.0467 97.6634 27.812C97.6634 30.5773 97.6407 33.3427 97.5954 36.108C97.5727 38.8507 97.5161 41.582 97.4254 44.302C97.3347 48.3367 96.3941 51.2267 94.6034 52.972C92.8354 54.6947 89.9114 55.556 85.8314 55.556ZM85.8314 49.47C87.2821 49.47 88.3474 49.164 89.0274 48.552C89.7074 47.9173 90.0587 46.9313 90.0814 45.594C90.1947 42.7833 90.2627 39.8707 90.2854 36.856C90.3307 33.8187 90.3534 30.7587 90.3534 27.676C90.3534 24.5933 90.3307 21.556 90.2854 18.564C90.2401 15.572 90.1721 12.6933 90.0814 9.928C90.0587 8.59066 89.6961 7.616 88.9934 7.004C88.3134 6.36933 87.2594 6.052 85.8314 6.052C84.4034 6.052 83.3381 6.36933 82.6354 7.004C81.9554 7.616 81.5927 8.59066 81.5474 9.928C81.4567 12.6933 81.3774 15.572 81.3094 18.564C81.2641 21.556 81.2414 24.5933 81.2414 27.676C81.2641 30.7587 81.2981 33.8187 81.3434 36.856C81.3887 39.8707 81.4567 42.7833 81.5474 45.594C81.5927 46.9313 81.9554 47.9173 82.6354 48.552C83.3381 49.164 84.4034 49.47 85.8314 49.47Z" fill="#666666"/>
</svg>
