<svg width="193" height="43" viewBox="0 0 193 43" fill="none" xmlns="http://www.w3.org/2000/svg">
<path d="M0.0002345 42.1201V6.92012H7.04023L6.95223 15.4561L5.76423 23.3321H6.95223L9.06423 15.4561L12.2322 6.92012H19.4482L13.5962 21.3961L19.7122 42.1201H13.0242L9.19623 28.7001L6.73223 34.0241V42.1201H0.0002345ZM21.8284 42.1201V6.92012H28.4284V42.1201H21.8284ZM31.969 42.1201V6.92012H41.517L44.157 18.1401L46.577 36.3121H47.721L46.489 22.0121L45.961 6.92012H52.341V42.1201H42.309L39.669 30.5921L37.865 12.6841H36.633L37.777 28.6121L38.349 42.1201H31.969ZM85.8145 42.1201V12.7281H80.1605V6.92012H98.0685V12.7281H92.4145V42.1201H85.8145ZM100.09 42.1201V6.92012H115.314V12.7281H106.69V21.3081H114.874V27.1161H106.69V36.3121H115.314V42.1201H100.09ZM118.051 42.1201V6.92012H125.091L125.003 15.4561L123.815 23.3321H125.003L127.115 15.4561L130.283 6.92012H137.499L131.647 21.3961L137.763 42.1201H131.075L127.247 28.7001L124.783 34.0241V42.1201H118.051ZM139.879 42.1201V6.92012H146.479V42.1201H139.879ZM150.02 42.1201V6.92012H159.568L162.208 18.1401L164.628 36.3121H165.772L164.54 22.0121L164.012 6.92012H170.392V42.1201H160.36L157.72 30.5921L155.916 12.6841H154.684L155.828 28.6121L156.4 42.1201H150.02ZM172.59 42.1201L177.474 6.92012H187.858L192.742 42.1201H185.966L185.218 34.7721H180.114L179.366 42.1201H172.59ZM180.73 28.9641H184.602L183.81 21.1761L183.282 12.7281H182.05L181.522 21.1761L180.73 28.9641Z" fill="white"/>
<path d="M66.9956 42.6401C63.1823 42.6401 60.4176 41.8341 58.7016 40.2221C57.0029 38.6101 56.1103 35.9321 56.0236 32.1881C55.9889 30.4894 55.9629 28.7214 55.9456 26.8841C55.9283 25.0468 55.9196 23.1834 55.9196 21.2941C55.9196 19.4048 55.9283 17.5414 55.9456 15.7041C55.9629 13.8668 55.9889 12.0988 56.0236 10.4001C56.1103 6.67345 57.0029 4.01278 58.7016 2.41812C60.4176 0.806114 63.1823 0.000113964 66.9956 0.000113964C70.8263 0.000113964 73.5736 0.806114 75.2376 2.41812C76.9016 4.01278 77.7943 6.67345 77.9156 10.4001C77.9849 12.1335 78.0369 13.9188 78.0716 15.7561C78.1063 17.5934 78.1236 19.4568 78.1236 21.3461C78.1236 23.2181 78.1063 25.0728 78.0716 26.9101C78.0369 28.7301 77.9849 30.4894 77.9156 32.1881C77.7943 35.9321 76.9016 38.6101 75.2376 40.2221C73.5736 41.8341 70.8263 42.6401 66.9956 42.6401ZM66.9956 36.2961C68.0183 36.2961 68.7896 36.0708 69.3096 35.6201C69.8296 35.1521 70.0983 34.4935 70.1156 33.6441C70.2023 31.8761 70.2629 29.9348 70.2976 27.8201C70.3323 25.7054 70.3496 23.5301 70.3496 21.2941C70.3496 19.0581 70.3323 16.8828 70.2976 14.7681C70.2629 12.6534 70.2023 10.7121 70.1156 8.94412C70.0983 8.11211 69.8209 7.47078 69.2836 7.02012C68.7463 6.56945 67.9836 6.34412 66.9956 6.34412C66.0076 6.34412 65.2363 6.56945 64.6816 7.02012C64.1443 7.47078 63.8583 8.11211 63.8236 8.94412C63.7543 10.7121 63.6936 12.6534 63.6416 14.7681C63.6069 16.8828 63.5896 19.0581 63.5896 21.2941C63.5896 23.5301 63.6069 25.7054 63.6416 27.8201C63.6936 29.9348 63.7543 31.8761 63.8236 33.6441C63.8583 34.4935 64.1443 35.1521 64.6816 35.6201C65.2363 36.0708 66.0076 36.2961 66.9956 36.2961Z" fill="#FF0000"/>
</svg>

