<svg width="182" height="54" viewBox="0 0 182 54" fill="none" xmlns="http://www.w3.org/2000/svg">
<path d="M173.232 30.3201C170.885 30.3201 169.21 29.747 168.208 28.6007C167.216 27.4545 166.672 25.5502 166.576 22.888C166.565 22.4936 166.56 22.0622 166.56 21.5938C166.56 21.1131 166.57 20.6386 166.592 20.1702C166.613 19.6896 166.65 19.252 166.704 18.8576H171.216C171.173 19.7574 171.146 20.6448 171.136 21.5199C171.125 22.395 171.152 23.1961 171.216 23.9233C171.269 24.5272 171.456 24.9956 171.776 25.3284C172.106 25.6488 172.592 25.809 173.232 25.809C173.861 25.809 174.32 25.6488 174.608 25.3284C174.906 24.9956 175.088 24.5272 175.152 23.9233C175.194 23.5042 175.221 23.0913 175.232 22.6846C175.253 22.2655 175.253 21.8526 175.232 21.4459C175.221 21.0269 175.194 20.6078 175.152 20.1887C175.109 19.6711 174.97 19.2027 174.736 18.7837C174.501 18.3646 174.128 18.0811 173.616 17.9332L170.992 17.1567C169.882 16.8239 169.002 16.3494 168.352 15.7332C167.701 15.1046 167.226 14.3281 166.928 13.4037C166.64 12.4793 166.48 11.4008 166.448 10.1683C166.437 9.62601 166.432 9.14533 166.432 8.72627C166.432 8.29488 166.437 7.85118 166.448 7.39514C166.512 5.63263 166.768 4.20907 167.216 3.12445C167.674 2.03983 168.389 1.25101 169.36 0.758002C170.33 0.252667 171.621 0 173.232 0C175.504 0 177.152 0.573124 178.176 1.71937C179.2 2.85329 179.76 4.74522 179.856 7.39514C179.877 7.92513 179.877 8.5722 179.856 9.33637C179.845 10.1005 179.824 10.8092 179.792 11.4625H175.184C175.216 10.612 175.237 9.76159 175.248 8.91115C175.258 8.06071 175.248 7.21026 175.216 6.35982C175.205 5.76821 175.018 5.31218 174.656 4.99172C174.304 4.67127 173.829 4.51104 173.232 4.51104C172.592 4.51104 172.117 4.67127 171.808 4.99172C171.498 5.31218 171.312 5.76821 171.248 6.35982C171.184 6.98841 171.152 7.62316 171.152 8.26407C171.152 8.90498 171.184 9.53973 171.248 10.1683C171.301 10.6613 171.45 11.1112 171.696 11.5179C171.941 11.9247 172.336 12.202 172.88 12.3499L175.152 12.9785C176.346 13.3113 177.285 13.8043 177.968 14.4575C178.661 15.0984 179.157 15.8996 179.456 16.8609C179.765 17.81 179.941 18.9192 179.984 20.1887C179.994 20.4722 180 20.768 180 21.0762C180 21.3843 179.994 21.6924 179.984 22.0005C179.973 22.3087 179.962 22.6045 179.952 22.888C179.856 25.5502 179.301 27.4545 178.288 28.6007C177.285 29.747 175.6 30.3201 173.232 30.3201Z" fill="white"/>
<path d="M151.785 29.9507V0.370117H157.705C160.094 0.370117 161.838 0.930915 162.937 2.05251C164.036 3.16178 164.585 5.00441 164.585 7.58038C164.585 7.92549 164.585 8.25827 164.585 8.57872C164.585 8.89918 164.574 9.21964 164.553 9.54009C164.478 10.8835 164.217 11.9558 163.769 12.757C163.321 13.5458 162.622 14.1251 161.673 14.4948V15.3823C162.654 15.752 163.374 16.3436 163.833 17.1571C164.292 17.9582 164.542 19.0552 164.585 20.4479C164.606 20.8547 164.617 21.2306 164.617 21.5757C164.617 21.9208 164.606 22.309 164.585 22.7404C164.489 25.3041 163.913 27.1467 162.857 28.2683C161.812 29.3899 160.094 29.9507 157.705 29.9507H151.785ZM156.585 25.0699H157.705C158.377 25.0699 158.889 24.8665 159.241 24.4598C159.604 24.0407 159.785 23.443 159.785 22.6665C159.785 22.3337 159.785 22.0071 159.785 21.6866C159.785 21.3662 159.785 21.0395 159.785 20.7068C159.785 19.4866 159.62 18.6238 159.289 18.1185C158.969 17.6008 158.441 17.342 157.705 17.342H156.585V25.0699ZM156.585 12.4612H157.705C158.377 12.4612 158.889 12.1962 159.241 11.6662C159.604 11.1239 159.785 10.3659 159.785 9.39219C159.785 9.03476 159.785 8.68349 159.785 8.33838C159.785 7.98095 159.785 7.62968 159.785 7.28457C159.785 6.63134 159.604 6.13216 159.241 5.78706C158.889 5.42963 158.377 5.25091 157.705 5.25091H156.585V12.4612Z" fill="white"/>
<path d="M135.545 29.9507L139.097 0.370117H146.649L150.201 29.9507H145.273L144.729 23.7757H141.017L140.473 29.9507H135.545ZM141.465 18.8949H144.281L143.705 12.3502L143.321 5.25091H142.425L142.041 12.3502L141.465 18.8949Z" fill="white"/>
<path d="M123.629 29.9507V0.370117H128.429V25.0699H134.733V29.9507H123.629Z" fill="white"/>
<path d="M105.484 29.9507V22.9253V22.8883L100.684 0.370117H105.58L106.956 7.5434L107.436 16.2327H108.332L108.812 7.5434L110.188 0.370117H115.084L110.284 22.8883V22.9253V29.9507H105.484Z" fill="white"/>
<path d="M77.8789 29.9507V0.370117H85.5909L87.7029 11.5738L88.1189 25.0699H88.9509L89.3349 11.5738L91.4789 0.370117H99.1589V29.9507H94.3589V20.8547L95.2869 5.25091H94.4229L93.0789 21.2244L91.0949 29.9507H85.9429L83.9909 21.2244L82.6149 5.25091H81.7829L82.6789 20.8547V29.9507H77.8789Z" fill="white"/>
<path d="M68.6597 30.3201C66.3131 30.3201 64.6118 29.747 63.5558 28.6007C62.5104 27.4545 61.9611 25.5502 61.9077 22.888C61.8864 21.6801 61.8704 20.4229 61.8598 19.1164C61.8491 17.81 61.8438 16.485 61.8438 15.1416C61.8438 13.7981 61.8491 12.4731 61.8598 11.1667C61.8704 9.86019 61.8864 8.60301 61.9077 7.39514C61.9611 4.74522 62.5104 2.85329 63.5558 1.71937C64.6118 0.573124 66.3131 0 68.6597 0C71.0171 0 72.7078 0.573124 73.7318 1.71937C74.7558 2.85329 75.3051 4.74522 75.3797 7.39514C75.4224 8.62767 75.4544 9.89717 75.4757 11.2036C75.4971 12.5101 75.5077 13.8351 75.5077 15.1785C75.5077 16.5097 75.4971 17.8285 75.4757 19.1349C75.4544 20.4291 75.4224 21.6801 75.3797 22.888C75.3051 25.5502 74.7558 27.4545 73.7318 28.6007C72.7078 29.747 71.0171 30.3201 68.6597 30.3201ZM68.6597 25.809C69.2891 25.809 69.7638 25.6488 70.0838 25.3284C70.4038 24.9956 70.5691 24.5272 70.5798 23.9233C70.6331 22.6661 70.6704 21.2857 70.6918 19.782C70.7131 18.2783 70.7238 16.7315 70.7238 15.1416C70.7238 13.5516 70.7131 12.0048 70.6918 10.5011C70.6704 8.99742 70.6331 7.617 70.5798 6.35982C70.5691 5.76821 70.3984 5.31218 70.0678 4.99172C69.7371 4.67127 69.2677 4.51104 68.6597 4.51104C68.0517 4.51104 67.5771 4.67127 67.2358 4.99172C66.9051 5.31218 66.7291 5.76821 66.7078 6.35982C66.6651 7.617 66.6278 8.99742 66.5958 10.5011C66.5744 12.0048 66.5637 13.5516 66.5637 15.1416C66.5637 16.7315 66.5744 18.2783 66.5958 19.782C66.6278 21.2857 66.6651 22.6661 66.7078 23.9233C66.7291 24.5272 66.9051 24.9956 67.2358 25.3284C67.5771 25.6488 68.0517 25.809 68.6597 25.809Z" fill="white"/>
<path d="M44.6289 29.9507V0.370117H51.5729L53.4929 9.79892L55.2529 25.0699H56.0849L55.1889 13.0528L54.8049 0.370117H59.4449V29.9507H52.1489L50.2289 20.263L48.9169 5.21393H48.0209L48.8529 18.5991L49.2689 29.9507H44.6289Z" fill="white"/>
<path d="M35.4097 30.3201C33.0631 30.3201 31.3618 29.747 30.3057 28.6007C29.2604 27.4545 28.7111 25.5502 28.6577 22.888C28.6364 21.6801 28.6204 20.4229 28.6097 19.1164C28.5991 17.81 28.5938 16.485 28.5938 15.1416C28.5938 13.7981 28.5991 12.4731 28.6097 11.1667C28.6204 9.86019 28.6364 8.60301 28.6577 7.39514C28.7111 4.74522 29.2604 2.85329 30.3057 1.71937C31.3618 0.573124 33.0631 0 35.4097 0C37.7671 0 39.4577 0.573124 40.4817 1.71937C41.5057 2.85329 42.0551 4.74522 42.1298 7.39514C42.1724 8.62767 42.2044 9.89717 42.2257 11.2036C42.2471 12.5101 42.2577 13.8351 42.2577 15.1785C42.2577 16.5097 42.2471 17.8285 42.2257 19.1349C42.2044 20.4291 42.1724 21.6801 42.1298 22.888C42.0551 25.5502 41.5057 27.4545 40.4817 28.6007C39.4577 29.747 37.7671 30.3201 35.4097 30.3201ZM35.4097 25.809C36.0391 25.809 36.5137 25.6488 36.8337 25.3284C37.1537 24.9956 37.3191 24.5272 37.3298 23.9233C37.3831 22.6661 37.4204 21.2857 37.4418 19.782C37.4631 18.2783 37.4737 16.7315 37.4737 15.1416C37.4737 13.5516 37.4631 12.0048 37.4418 10.5011C37.4204 8.99742 37.3831 7.617 37.3298 6.35982C37.3191 5.76821 37.1484 5.31218 36.8178 4.99172C36.4871 4.67127 36.0178 4.51104 35.4097 4.51104C34.8017 4.51104 34.3271 4.67127 33.9858 4.99172C33.6551 5.31218 33.4791 5.76821 33.4578 6.35982C33.4151 7.617 33.3778 8.99742 33.3458 10.5011C33.3244 12.0048 33.3137 13.5516 33.3137 15.1416C33.3137 16.7315 33.3244 18.2783 33.3458 19.782C33.3778 21.2857 33.4151 22.6661 33.4578 23.9233C33.4791 24.5272 33.6551 24.9956 33.9858 25.3284C34.3271 25.6488 34.8017 25.809 35.4097 25.809Z" fill="white"/>
<path d="M18.7155 29.9507V5.25091H14.6035V0.370117H27.6275V5.25091H23.5155V29.9507H18.7155Z" fill="white"/>
<path d="M6.816 30.3201C4.46933 30.3201 2.768 29.747 1.712 28.6007C0.666667 27.4545 0.117333 25.5502 0.064 22.888C0.0426667 21.6801 0.0266667 20.4229 0.016 19.1164C0.00533334 17.81 0 16.485 0 15.1416C0 13.7981 0.00533334 12.4731 0.016 11.1667C0.0266667 9.86019 0.0426667 8.60301 0.064 7.39514C0.117333 4.74522 0.666667 2.85329 1.712 1.71937C2.768 0.573124 4.46933 0 6.816 0C9.17333 0 10.864 0.573124 11.888 1.71937C12.912 2.85329 13.4613 4.74522 13.536 7.39514C13.5787 8.62767 13.6107 9.89717 13.632 11.2036C13.6533 12.5101 13.664 13.8351 13.664 15.1785C13.664 16.5097 13.6533 17.8285 13.632 19.1349C13.6107 20.4291 13.5787 21.6801 13.536 22.888C13.4613 25.5502 12.912 27.4545 11.888 28.6007C10.864 29.747 9.17333 30.3201 6.816 30.3201ZM6.816 25.809C7.44533 25.809 7.92 25.6488 8.24 25.3284C8.56 24.9956 8.72533 24.5272 8.736 23.9233C8.78933 22.6661 8.82667 21.2857 8.848 19.782C8.86933 18.2783 8.88 16.7315 8.88 15.1416C8.88 13.5516 8.86933 12.0048 8.848 10.5011C8.82667 8.99742 8.78933 7.617 8.736 6.35982C8.72533 5.76821 8.55467 5.31218 8.224 4.99172C7.89333 4.67127 7.424 4.51104 6.816 4.51104C6.208 4.51104 5.73333 4.67127 5.392 4.99172C5.06133 5.31218 4.88533 5.76821 4.864 6.35982C4.82133 7.617 4.784 8.99742 4.752 10.5011C4.73067 12.0048 4.72 13.5516 4.72 15.1416C4.72 16.7315 4.73067 18.2783 4.752 19.782C4.784 21.2857 4.82133 22.6661 4.864 23.9233C4.88533 24.5272 5.06133 24.9956 5.392 25.3284C5.73333 25.6488 6.208 25.809 6.816 25.809Z" fill="white"/>
<path d="M1.122 50.001V42.301H5.995V43.038H1.969V45.799H4.697V46.536H1.969V50.001H1.122ZM9.3457 50.111C8.85437 50.111 8.4107 49.99 8.0147 49.748C7.62604 49.4986 7.31437 49.165 7.0797 48.747C6.85237 48.329 6.7387 47.856 6.7387 47.328C6.7387 46.8 6.85237 46.327 7.0797 45.909C7.31437 45.4836 7.62604 45.15 8.0147 44.908C8.4107 44.666 8.85437 44.545 9.3457 44.545C9.83704 44.545 10.277 44.666 10.6657 44.908C11.0617 45.15 11.3734 45.4836 11.6007 45.909C11.8354 46.327 11.9527 46.8 11.9527 47.328C11.9527 47.856 11.8354 48.329 11.6007 48.747C11.3734 49.165 11.0617 49.4986 10.6657 49.748C10.277 49.99 9.83704 50.111 9.3457 50.111ZM9.3457 49.396C9.6977 49.396 10.0094 49.308 10.2807 49.132C10.552 48.9486 10.7647 48.703 10.9187 48.395C11.08 48.0796 11.1607 47.724 11.1607 47.328C11.1607 46.9246 11.08 46.569 10.9187 46.261C10.7647 45.953 10.552 45.711 10.2807 45.535C10.0094 45.3516 9.6977 45.26 9.3457 45.26C8.9937 45.26 8.68204 45.3516 8.4107 45.535C8.13937 45.711 7.92304 45.953 7.7617 46.261C7.6077 46.569 7.5307 46.9246 7.5307 47.328C7.5307 47.724 7.6077 48.0796 7.7617 48.395C7.92304 48.703 8.13937 48.9486 8.4107 49.132C8.68204 49.308 8.9937 49.396 9.3457 49.396ZM13.1144 50.001V49.341H14.5884V45.293H13.1144V44.633H15.3914V45.832C15.5527 45.4213 15.7947 45.106 16.1174 44.886C16.4401 44.6586 16.8141 44.545 17.2394 44.545C17.4081 44.545 17.5584 44.5596 17.6904 44.589C17.8224 44.611 17.9801 44.6513 18.1634 44.71V45.447C17.9801 45.3883 17.8041 45.3406 17.6354 45.304C17.4741 45.2673 17.3127 45.249 17.1514 45.249C16.7554 45.249 16.4034 45.3516 16.0954 45.557C15.7874 45.7623 15.5527 46.0556 15.3914 46.437V49.341H16.9534V50.001H13.1144ZM19.6221 50.001L18.5551 44.633H19.2701L20.0291 48.89L21.1071 44.633H21.8221L22.9111 48.89L23.6591 44.633H24.3191L23.2521 50.001H22.5261L21.4481 45.678L20.3701 50.001H19.6221ZM26.9988 50.111C26.6101 50.111 26.2618 50.0413 25.9538 49.902C25.6531 49.7626 25.4185 49.572 25.2498 49.33C25.0811 49.0806 24.9968 48.7946 24.9968 48.472C24.9968 48.1493 25.0811 47.867 25.2498 47.625C25.4258 47.383 25.6678 47.196 25.9758 47.064C26.2911 46.932 26.6541 46.866 27.0648 46.866C27.3875 46.866 27.6881 46.899 27.9668 46.965C28.2455 47.0236 28.5095 47.1263 28.7588 47.273V46.657C28.7588 46.1803 28.6378 45.821 28.3958 45.579C28.1538 45.337 27.7945 45.216 27.3178 45.216C27.0465 45.216 26.7751 45.2563 26.5038 45.337C26.2325 45.4103 25.9281 45.5423 25.5908 45.733L25.2608 45.128C25.6495 44.9153 26.0198 44.765 26.3718 44.677C26.7238 44.589 27.0721 44.545 27.4168 44.545C28.0988 44.545 28.6231 44.7173 28.9898 45.062C29.3638 45.4066 29.5508 45.9016 29.5508 46.547V50.001H28.7588V49.385C28.5095 49.6343 28.2381 49.8176 27.9448 49.935C27.6588 50.0523 27.3435 50.111 26.9988 50.111ZM25.7668 48.45C25.7668 48.7653 25.8951 49.0183 26.1518 49.209C26.4085 49.3996 26.7458 49.495 27.1638 49.495C27.4791 49.495 27.7651 49.4473 28.0218 49.352C28.2858 49.2493 28.5315 49.088 28.7588 48.868V47.834C28.5315 47.6946 28.2895 47.5956 28.0328 47.537C27.7761 47.4783 27.4938 47.449 27.1858 47.449C26.7605 47.449 26.4158 47.5406 26.1518 47.724C25.8951 47.9073 25.7668 48.1493 25.7668 48.45ZM31.2515 50.001V49.341H32.7255V45.293H31.2515V44.633H33.5285V45.832C33.6898 45.4213 33.9318 45.106 34.2545 44.886C34.5772 44.6586 34.9512 44.545 35.3765 44.545C35.5452 44.545 35.6955 44.5596 35.8275 44.589C35.9595 44.611 36.1172 44.6513 36.3005 44.71V45.447C36.1172 45.3883 35.9412 45.3406 35.7725 45.304C35.6112 45.2673 35.4498 45.249 35.2885 45.249C34.8925 45.249 34.5405 45.3516 34.2325 45.557C33.9245 45.7623 33.6898 46.0556 33.5285 46.437V49.341H35.0905V50.001H31.2515ZM39.3542 50.078C38.8922 50.078 38.4742 49.957 38.1002 49.715C37.7262 49.4656 37.4292 49.1356 37.2092 48.725C36.9892 48.307 36.8792 47.8413 36.8792 47.328C36.8792 46.8073 36.9892 46.3416 37.2092 45.931C37.4366 45.513 37.7409 45.183 38.1222 44.941C38.5036 44.6916 38.9289 44.567 39.3982 44.567C39.7282 44.567 40.0362 44.633 40.3222 44.765C40.6082 44.8896 40.8576 45.073 41.0702 45.315V42.059L41.8732 41.894V50.001H41.0702V49.286C40.8649 49.5426 40.6156 49.7406 40.3222 49.88C40.0289 50.012 39.7062 50.078 39.3542 50.078ZM39.5522 49.374C39.8676 49.374 40.1572 49.3116 40.4212 49.187C40.6852 49.0623 40.9016 48.8863 41.0702 48.659V45.997C40.8942 45.7696 40.6706 45.5936 40.3992 45.469C40.1352 45.337 39.8529 45.271 39.5522 45.271C39.1929 45.271 38.8702 45.359 38.5842 45.535C38.3056 45.711 38.0819 45.953 37.9132 46.261C37.7519 46.569 37.6712 46.921 37.6712 47.317C37.6712 47.7056 37.7519 48.0576 37.9132 48.373C38.0819 48.681 38.3056 48.9266 38.5842 49.11C38.8702 49.286 39.1929 49.374 39.5522 49.374ZM51.4456 50.078C50.9836 50.078 50.5656 49.957 50.1916 49.715C49.8176 49.4656 49.5206 49.1356 49.3006 48.725C49.0806 48.307 48.9706 47.8413 48.9706 47.328C48.9706 46.8073 49.0806 46.3416 49.3006 45.931C49.528 45.513 49.8323 45.183 50.2136 44.941C50.595 44.6916 51.0203 44.567 51.4896 44.567C51.8196 44.567 52.1276 44.633 52.4136 44.765C52.6996 44.8896 52.949 45.073 53.1616 45.315V42.059L53.9646 41.894V50.001H53.1616V49.286C52.9563 49.5426 52.707 49.7406 52.4136 49.88C52.1203 50.012 51.7976 50.078 51.4456 50.078ZM51.6436 49.374C51.959 49.374 52.2486 49.3116 52.5126 49.187C52.7766 49.0623 52.993 48.8863 53.1616 48.659V45.997C52.9856 45.7696 52.762 45.5936 52.4906 45.469C52.2266 45.337 51.9443 45.271 51.6436 45.271C51.2843 45.271 50.9616 45.359 50.6756 45.535C50.397 45.711 50.1733 45.953 50.0046 46.261C49.8433 46.569 49.7626 46.921 49.7626 47.317C49.7626 47.7056 49.8433 48.0576 50.0046 48.373C50.1733 48.681 50.397 48.9266 50.6756 49.11C50.9616 49.286 51.2843 49.374 51.6436 49.374ZM57.8433 50.111C57.33 50.111 56.868 49.99 56.4573 49.748C56.0467 49.4986 55.7203 49.165 55.4783 48.747C55.2437 48.3216 55.1263 47.845 55.1263 47.317C55.1263 46.789 55.24 46.316 55.4673 45.898C55.6947 45.48 56.0027 45.15 56.3913 44.908C56.7873 44.666 57.2273 44.545 57.7113 44.545C58.2173 44.545 58.6683 44.666 59.0643 44.908C59.4603 45.1426 59.772 45.4653 59.9993 45.876C60.2267 46.2793 60.3403 46.7376 60.3403 47.251V47.493H55.9073C55.9367 47.8596 56.0393 48.1896 56.2153 48.483C56.3913 48.769 56.6223 48.9963 56.9083 49.165C57.2017 49.3263 57.5243 49.407 57.8763 49.407C58.1917 49.407 58.485 49.3483 58.7563 49.231C59.035 49.1063 59.266 48.9376 59.4493 48.725L60.0103 49.22C59.7243 49.5133 59.398 49.737 59.0313 49.891C58.6647 50.0376 58.2687 50.111 57.8433 50.111ZM55.9293 46.899H59.5483C59.5043 46.5763 59.3943 46.2903 59.2183 46.041C59.0497 45.7916 58.8333 45.5973 58.5693 45.458C58.3127 45.3113 58.023 45.238 57.7003 45.238C57.3997 45.238 57.1247 45.3076 56.8753 45.447C56.626 45.5863 56.417 45.7806 56.2483 46.03C56.087 46.2793 55.9807 46.569 55.9293 46.899ZM61.447 52.3V44.633H62.239V45.403C62.4444 45.1316 62.6937 44.9263 62.987 44.787C63.2877 44.6403 63.6177 44.567 63.977 44.567C64.4464 44.567 64.8644 44.6916 65.231 44.941C65.605 45.183 65.902 45.513 66.122 45.931C66.342 46.3416 66.452 46.8036 66.452 47.317C66.452 47.8303 66.3384 48.296 66.111 48.714C65.891 49.132 65.5904 49.4656 65.209 49.715C64.835 49.957 64.4097 50.078 63.933 50.078C63.5957 50.078 63.284 50.0156 62.998 49.891C62.712 49.759 62.4627 49.572 62.25 49.33V52.3H61.447ZM63.779 49.385C64.1384 49.385 64.4574 49.297 64.736 49.121C65.022 48.9376 65.2457 48.692 65.407 48.384C65.5757 48.0686 65.66 47.7166 65.66 47.328C65.66 46.932 65.5757 46.58 65.407 46.272C65.2457 45.964 65.022 45.722 64.736 45.546C64.4574 45.3626 64.1384 45.271 63.779 45.271C63.4637 45.271 63.1704 45.337 62.899 45.469C62.635 45.5936 62.4187 45.7733 62.25 46.008V48.637C62.426 48.8716 62.646 49.055 62.91 49.187C63.1814 49.319 63.471 49.385 63.779 49.385ZM71.0677 50.111C70.5031 50.111 70.0704 49.979 69.7697 49.715C69.4691 49.451 69.3187 49.055 69.3187 48.527V42.664H67.3277V42.004H70.1217V48.45C70.1217 48.7873 70.2024 49.0293 70.3637 49.176C70.5251 49.3226 70.7634 49.396 71.0787 49.396C71.2694 49.396 71.4637 49.3776 71.6617 49.341C71.8597 49.297 72.0797 49.2273 72.3217 49.132V49.858C72.1091 49.9313 71.8964 49.99 71.6837 50.034C71.4784 50.0853 71.2731 50.111 71.0677 50.111ZM75.8484 50.111C75.3571 50.111 74.9134 49.99 74.5174 49.748C74.1288 49.4986 73.8171 49.165 73.5824 48.747C73.3551 48.329 73.2414 47.856 73.2414 47.328C73.2414 46.8 73.3551 46.327 73.5824 45.909C73.8171 45.4836 74.1288 45.15 74.5174 44.908C74.9134 44.666 75.3571 44.545 75.8484 44.545C76.3398 44.545 76.7798 44.666 77.1684 44.908C77.5644 45.15 77.8761 45.4836 78.1034 45.909C78.3381 46.327 78.4554 46.8 78.4554 47.328C78.4554 47.856 78.3381 48.329 78.1034 48.747C77.8761 49.165 77.5644 49.4986 77.1684 49.748C76.7798 49.99 76.3398 50.111 75.8484 50.111ZM75.8484 49.396C76.2004 49.396 76.5121 49.308 76.7834 49.132C77.0548 48.9486 77.2674 48.703 77.4214 48.395C77.5828 48.0796 77.6634 47.724 77.6634 47.328C77.6634 46.9246 77.5828 46.569 77.4214 46.261C77.2674 45.953 77.0548 45.711 76.7834 45.535C76.5121 45.3516 76.2004 45.26 75.8484 45.26C75.4964 45.26 75.1848 45.3516 74.9134 45.535C74.6421 45.711 74.4258 45.953 74.2644 46.261C74.1104 46.569 74.0334 46.9246 74.0334 47.328C74.0334 47.724 74.1104 48.0796 74.2644 48.395C74.4258 48.703 74.6421 48.9486 74.9134 49.132C75.1848 49.308 75.4964 49.396 75.8484 49.396ZM80.0131 52.41C79.8958 52.41 79.7711 52.4026 79.6391 52.388C79.5145 52.3733 79.3898 52.3513 79.2651 52.322V51.563C79.4045 51.5923 79.5255 51.6143 79.6281 51.629C79.7381 51.651 79.8371 51.662 79.9251 51.662C80.1745 51.662 80.3835 51.6106 80.5521 51.508C80.7208 51.4053 80.8565 51.2293 80.9591 50.98L81.3661 50.034L79.1881 44.633H80.0681L81.8281 49.077L83.6541 44.633H84.5231L81.6961 51.222C81.5715 51.508 81.4321 51.739 81.2781 51.915C81.1315 52.091 80.9555 52.2156 80.7501 52.289C80.5521 52.3696 80.3065 52.41 80.0131 52.41ZM88.0718 50.111C87.5585 50.111 87.0965 49.99 86.6858 49.748C86.2752 49.4986 85.9488 49.165 85.7068 48.747C85.4722 48.3216 85.3548 47.845 85.3548 47.317C85.3548 46.789 85.4685 46.316 85.6958 45.898C85.9232 45.48 86.2312 45.15 86.6198 44.908C87.0158 44.666 87.4558 44.545 87.9398 44.545C88.4458 44.545 88.8968 44.666 89.2928 44.908C89.6888 45.1426 90.0005 45.4653 90.2278 45.876C90.4552 46.2793 90.5688 46.7376 90.5688 47.251V47.493H86.1358C86.1652 47.8596 86.2678 48.1896 86.4438 48.483C86.6198 48.769 86.8508 48.9963 87.1368 49.165C87.4302 49.3263 87.7528 49.407 88.1048 49.407C88.4202 49.407 88.7135 49.3483 88.9848 49.231C89.2635 49.1063 89.4945 48.9376 89.6778 48.725L90.2388 49.22C89.9528 49.5133 89.6265 49.737 89.2598 49.891C88.8932 50.0376 88.4972 50.111 88.0718 50.111ZM86.1578 46.899H89.7768C89.7328 46.5763 89.6228 46.2903 89.4468 46.041C89.2782 45.7916 89.0618 45.5973 88.7978 45.458C88.5412 45.3113 88.2515 45.238 87.9288 45.238C87.6282 45.238 87.3532 45.3076 87.1038 45.447C86.8545 45.5863 86.6455 45.7806 86.4768 46.03C86.3155 46.2793 86.2092 46.569 86.1578 46.899ZM93.7655 50.078C93.3035 50.078 92.8855 49.957 92.5115 49.715C92.1375 49.4656 91.8405 49.1356 91.6205 48.725C91.4005 48.307 91.2905 47.8413 91.2905 47.328C91.2905 46.8073 91.4005 46.3416 91.6205 45.931C91.8479 45.513 92.1522 45.183 92.5335 44.941C92.9149 44.6916 93.3402 44.567 93.8095 44.567C94.1395 44.567 94.4475 44.633 94.7335 44.765C95.0195 44.8896 95.2689 45.073 95.4815 45.315V42.059L96.2845 41.894V50.001H95.4815V49.286C95.2762 49.5426 95.0269 49.7406 94.7335 49.88C94.4402 50.012 94.1175 50.078 93.7655 50.078ZM93.9635 49.374C94.2789 49.374 94.5685 49.3116 94.8325 49.187C95.0965 49.0623 95.3129 48.8863 95.4815 48.659V45.997C95.3055 45.7696 95.0819 45.5936 94.8105 45.469C94.5465 45.337 94.2642 45.271 93.9635 45.271C93.6042 45.271 93.2815 45.359 92.9955 45.535C92.7169 45.711 92.4932 45.953 92.3245 46.261C92.1632 46.569 92.0825 46.921 92.0825 47.317C92.0825 47.7056 92.1632 48.0576 92.3245 48.373C92.4932 48.681 92.7169 48.9266 92.9955 49.11C93.2815 49.286 93.6042 49.374 93.9635 49.374ZM103.8 50.001V49.341H105.274V45.293H103.8V44.633H106.077V45.832C106.238 45.4213 106.48 45.106 106.803 44.886C107.126 44.6586 107.5 44.545 107.925 44.545C108.094 44.545 108.244 44.5596 108.376 44.589C108.508 44.611 108.666 44.6513 108.849 44.71V45.447C108.666 45.3883 108.49 45.3406 108.321 45.304C108.16 45.2673 107.998 45.249 107.837 45.249C107.441 45.249 107.089 45.3516 106.781 45.557C106.473 45.7623 106.238 46.0556 106.077 46.437V49.341H107.639V50.001H103.8ZM112.255 50.111C111.741 50.111 111.279 49.99 110.869 49.748C110.458 49.4986 110.132 49.165 109.89 48.747C109.655 48.3216 109.538 47.845 109.538 47.317C109.538 46.789 109.651 46.316 109.879 45.898C110.106 45.48 110.414 45.15 110.803 44.908C111.199 44.666 111.639 44.545 112.123 44.545C112.629 44.545 113.08 44.666 113.476 44.908C113.872 45.1426 114.183 45.4653 114.411 45.876C114.638 46.2793 114.752 46.7376 114.752 47.251V47.493H110.319C110.348 47.8596 110.451 48.1896 110.627 48.483C110.803 48.769 111.034 48.9963 111.32 49.165C111.613 49.3263 111.936 49.407 112.288 49.407C112.603 49.407 112.896 49.3483 113.168 49.231C113.446 49.1063 113.677 48.9376 113.861 48.725L114.422 49.22C114.136 49.5133 113.809 49.737 113.443 49.891C113.076 50.0376 112.68 50.111 112.255 50.111ZM110.341 46.899H113.96C113.916 46.5763 113.806 46.2903 113.63 46.041C113.461 45.7916 113.245 45.5973 112.981 45.458C112.724 45.3113 112.434 45.238 112.112 45.238C111.811 45.238 111.536 45.3076 111.287 45.447C111.037 45.5863 110.828 45.7806 110.66 46.03C110.498 46.2793 110.392 46.569 110.341 46.899ZM118.113 50.111C117.637 50.111 117.193 50.0486 116.782 49.924C116.372 49.792 116.027 49.5903 115.748 49.319L116.177 48.758C116.522 49.0073 116.848 49.1833 117.156 49.286C117.464 49.3813 117.776 49.429 118.091 49.429C118.539 49.429 118.905 49.341 119.191 49.165C119.485 48.989 119.631 48.7653 119.631 48.494C119.631 48.2813 119.562 48.12 119.422 48.01C119.29 47.8926 119.114 47.8083 118.894 47.757C118.674 47.7056 118.429 47.6653 118.157 47.636C117.893 47.6066 117.626 47.57 117.354 47.526C117.09 47.4746 116.848 47.4013 116.628 47.306C116.408 47.2106 116.229 47.0713 116.089 46.888C115.957 46.6973 115.891 46.4443 115.891 46.129C115.891 45.8136 115.979 45.5386 116.155 45.304C116.339 45.0693 116.592 44.886 116.914 44.754C117.237 44.6146 117.604 44.545 118.014 44.545C118.418 44.545 118.799 44.5963 119.158 44.699C119.525 44.7943 119.888 44.9666 120.247 45.216L119.851 45.799C119.551 45.5863 119.243 45.4396 118.927 45.359C118.619 45.271 118.304 45.227 117.981 45.227C117.578 45.227 117.252 45.304 117.002 45.458C116.753 45.612 116.628 45.8173 116.628 46.074C116.628 46.2793 116.694 46.437 116.826 46.547C116.966 46.657 117.145 46.7376 117.365 46.789C117.593 46.8403 117.838 46.8843 118.102 46.921C118.374 46.9503 118.641 46.9906 118.905 47.042C119.177 47.086 119.422 47.1593 119.642 47.262C119.87 47.3573 120.049 47.5003 120.181 47.691C120.321 47.8743 120.39 48.1273 120.39 48.45C120.39 48.758 120.291 49.0403 120.093 49.297C119.895 49.5463 119.624 49.7443 119.279 49.891C118.935 50.0376 118.546 50.111 118.113 50.111ZM124.346 50.111C123.833 50.111 123.371 49.99 122.96 49.748C122.549 49.4986 122.223 49.165 121.981 48.747C121.746 48.3216 121.629 47.845 121.629 47.317C121.629 46.789 121.743 46.316 121.97 45.898C122.197 45.48 122.505 45.15 122.894 44.908C123.29 44.666 123.73 44.545 124.214 44.545C124.72 44.545 125.171 44.666 125.567 44.908C125.963 45.1426 126.275 45.4653 126.502 45.876C126.729 46.2793 126.843 46.7376 126.843 47.251V47.493H122.41C122.439 47.8596 122.542 48.1896 122.718 48.483C122.894 48.769 123.125 48.9963 123.411 49.165C123.704 49.3263 124.027 49.407 124.379 49.407C124.694 49.407 124.988 49.3483 125.259 49.231C125.538 49.1063 125.769 48.9376 125.952 48.725L126.513 49.22C126.227 49.5133 125.901 49.737 125.534 49.891C125.167 50.0376 124.771 50.111 124.346 50.111ZM122.432 46.899H126.051C126.007 46.5763 125.897 46.2903 125.721 46.041C125.552 45.7916 125.336 45.5973 125.072 45.458C124.815 45.3113 124.526 45.238 124.203 45.238C123.902 45.238 123.627 45.3076 123.378 45.447C123.129 45.5863 122.92 45.7806 122.751 46.03C122.59 46.2793 122.483 46.569 122.432 46.899ZM129.776 50.111C129.387 50.111 129.039 50.0413 128.731 49.902C128.43 49.7626 128.195 49.572 128.027 49.33C127.858 49.0806 127.774 48.7946 127.774 48.472C127.774 48.1493 127.858 47.867 128.027 47.625C128.203 47.383 128.445 47.196 128.753 47.064C129.068 46.932 129.431 46.866 129.842 46.866C130.164 46.866 130.465 46.899 130.744 46.965C131.022 47.0236 131.286 47.1263 131.536 47.273V46.657C131.536 46.1803 131.415 45.821 131.173 45.579C130.931 45.337 130.571 45.216 130.095 45.216C129.823 45.216 129.552 45.2563 129.281 45.337C129.009 45.4103 128.705 45.5423 128.368 45.733L128.038 45.128C128.426 44.9153 128.797 44.765 129.149 44.677C129.501 44.589 129.849 44.545 130.194 44.545C130.876 44.545 131.4 44.7173 131.767 45.062C132.141 45.4066 132.328 45.9016 132.328 46.547V50.001H131.536V49.385C131.286 49.6343 131.015 49.8176 130.722 49.935C130.436 50.0523 130.12 50.111 129.776 50.111ZM128.544 48.45C128.544 48.7653 128.672 49.0183 128.929 49.209C129.185 49.3996 129.523 49.495 129.941 49.495C130.256 49.495 130.542 49.4473 130.799 49.352C131.063 49.2493 131.308 49.088 131.536 48.868V47.834C131.308 47.6946 131.066 47.5956 130.81 47.537C130.553 47.4783 130.271 47.449 129.963 47.449C129.537 47.449 129.193 47.5406 128.929 47.724C128.672 47.9073 128.544 48.1493 128.544 48.45ZM134.028 50.001V49.341H135.502V45.293H134.028V44.633H136.305V45.832C136.467 45.4213 136.709 45.106 137.031 44.886C137.354 44.6586 137.728 44.545 138.153 44.545C138.322 44.545 138.472 44.5596 138.604 44.589C138.736 44.611 138.894 44.6513 139.077 44.71V45.447C138.894 45.3883 138.718 45.3406 138.549 45.304C138.388 45.2673 138.227 45.249 138.065 45.249C137.669 45.249 137.317 45.3516 137.009 45.557C136.701 45.7623 136.467 46.0556 136.305 46.437V49.341H137.867V50.001H134.028ZM142.439 50.111C141.933 50.111 141.475 49.99 141.064 49.748C140.661 49.4986 140.338 49.165 140.096 48.747C139.862 48.329 139.744 47.856 139.744 47.328C139.744 46.8 139.862 46.327 140.096 45.909C140.338 45.4836 140.661 45.15 141.064 44.908C141.475 44.666 141.933 44.545 142.439 44.545C142.938 44.545 143.389 44.655 143.792 44.875C144.196 45.095 144.515 45.392 144.749 45.766L144.1 46.173C143.932 45.8943 143.701 45.6743 143.407 45.513C143.121 45.3443 142.799 45.26 142.439 45.26C142.073 45.26 141.746 45.3516 141.46 45.535C141.174 45.711 140.947 45.953 140.778 46.261C140.617 46.569 140.536 46.9246 140.536 47.328C140.536 47.724 140.617 48.0796 140.778 48.395C140.947 48.703 141.174 48.9486 141.46 49.132C141.746 49.308 142.073 49.396 142.439 49.396C142.799 49.396 143.121 49.3153 143.407 49.154C143.701 48.9853 143.932 48.7616 144.1 48.483L144.749 48.89C144.515 49.264 144.196 49.561 143.792 49.781C143.389 50.001 142.938 50.111 142.439 50.111ZM146.186 50.001V42.059L146.989 41.894V45.502C147.4 44.864 147.968 44.545 148.694 44.545C149.083 44.545 149.42 44.6293 149.706 44.798C149.999 44.9593 150.227 45.1903 150.388 45.491C150.557 45.7843 150.641 46.129 150.641 46.525V50.001H149.838V46.756C149.838 46.2793 149.706 45.9053 149.442 45.634C149.185 45.3553 148.837 45.216 148.397 45.216C148.104 45.216 147.836 45.2856 147.594 45.425C147.352 45.5643 147.15 45.7696 146.989 46.041V50.001H146.186ZM160.191 50.089C159.81 50.089 159.473 50.0046 159.179 49.836C158.886 49.6673 158.655 49.4326 158.486 49.132C158.325 48.8313 158.244 48.4866 158.244 48.098V44.633H159.058V47.867C159.058 48.3436 159.187 48.7213 159.443 49C159.7 49.2786 160.048 49.418 160.488 49.418C160.789 49.418 161.057 49.3483 161.291 49.209C161.533 49.0696 161.735 48.868 161.896 48.604V44.633H162.699V50.001H161.896V49.132C161.493 49.77 160.925 50.089 160.191 50.089ZM164.323 50.001V44.633H165.126V45.502C165.537 44.864 166.105 44.545 166.831 44.545C167.22 44.545 167.557 44.6293 167.843 44.798C168.136 44.9593 168.364 45.1903 168.525 45.491C168.694 45.7843 168.778 46.129 168.778 46.525V50.001H167.975V46.756C167.975 46.2793 167.843 45.9053 167.579 45.634C167.322 45.3553 166.974 45.216 166.534 45.216C166.241 45.216 165.973 45.2856 165.731 45.425C165.489 45.5643 165.287 45.7696 165.126 46.041V50.001H164.323ZM172.503 43.357C172.312 43.357 172.147 43.291 172.008 43.159C171.876 43.0196 171.81 42.8583 171.81 42.675C171.81 42.4843 171.876 42.323 172.008 42.191C172.147 42.059 172.312 41.993 172.503 41.993C172.693 41.993 172.855 42.059 172.987 42.191C173.126 42.323 173.196 42.4843 173.196 42.675C173.196 42.8583 173.126 43.0196 172.987 43.159C172.855 43.291 172.693 43.357 172.503 43.357ZM173.845 50.111C173.28 50.111 172.847 49.979 172.547 49.715C172.246 49.451 172.096 49.055 172.096 48.527V45.293H170.105V44.633H172.899V48.45C172.899 48.7873 172.979 49.0293 173.141 49.176C173.302 49.3226 173.54 49.396 173.856 49.396C174.046 49.396 174.241 49.3776 174.439 49.341C174.637 49.297 174.857 49.2273 175.099 49.132V49.858C174.886 49.9313 174.673 49.99 174.461 50.034C174.255 50.0853 174.05 50.111 173.845 50.111ZM179.505 50.111C178.904 50.111 178.442 49.9826 178.119 49.726C177.804 49.462 177.646 49.0806 177.646 48.582V45.293H175.809V44.633H177.646V43.159L178.449 42.972V44.633H180.924V45.293H178.449V48.45C178.449 48.7873 178.541 49.0293 178.724 49.176C178.908 49.3226 179.172 49.396 179.516 49.396C179.729 49.396 179.949 49.374 180.176 49.33C180.404 49.286 180.653 49.2126 180.924 49.11V49.836C180.682 49.924 180.444 49.99 180.209 50.034C179.975 50.0853 179.74 50.111 179.505 50.111Z" fill="white"/>
</svg>
