<svg width="93" height="120" viewBox="0 0 93 120" fill="none" xmlns="http://www.w3.org/2000/svg">
<rect width="92.4547" height="119.32" fill="#FF0704"/>
<path d="M60.6027 108.32C58.2561 108.32 56.5814 107.747 55.5787 106.601C54.5867 105.454 54.0427 103.55 53.9467 100.888C53.9361 100.494 53.9307 100.062 53.9307 99.5938C53.9307 99.1131 53.9414 98.6386 53.9627 98.1702C53.9841 97.6896 54.0214 97.252 54.0747 96.8576H58.5867C58.5441 97.7574 58.5174 98.6448 58.5067 99.5199C58.4961 100.395 58.5227 101.196 58.5867 101.923C58.6401 102.527 58.8267 102.996 59.1467 103.328C59.4774 103.649 59.9627 103.809 60.6027 103.809C61.2321 103.809 61.6907 103.649 61.9787 103.328C62.2774 102.996 62.4587 102.527 62.5227 101.923C62.5654 101.504 62.5921 101.091 62.6027 100.685C62.6241 100.266 62.6241 99.8526 62.6027 99.4459C62.5921 99.0269 62.5654 98.6078 62.5227 98.1887C62.4801 97.6711 62.3414 97.2027 62.1067 96.7837C61.8721 96.3646 61.4987 96.0811 60.9867 95.9332L58.3627 95.1567C57.2534 94.8239 56.3734 94.3494 55.7227 93.7332C55.0721 93.1046 54.5974 92.3281 54.2987 91.4037C54.0107 90.4793 53.8507 89.4008 53.8187 88.1683C53.8081 87.626 53.8027 87.1453 53.8027 86.7263C53.8027 86.2949 53.8081 85.8512 53.8187 85.3951C53.8827 83.6326 54.1387 82.2091 54.5867 81.1244C55.0454 80.0398 55.7601 79.251 56.7307 78.758C57.7014 78.2527 58.9921 78 60.6027 78C62.8747 78 64.5227 78.5731 65.5467 79.7194C66.5707 80.8533 67.1307 82.7452 67.2267 85.3951C67.2481 85.9251 67.2481 86.5722 67.2267 87.3364C67.2161 88.1005 67.1947 88.8092 67.1627 89.4625H62.5547C62.5867 88.612 62.6081 87.7616 62.6187 86.9111C62.6294 86.0607 62.6187 85.2103 62.5867 84.3598C62.5761 83.7682 62.3894 83.3122 62.0267 82.9917C61.6747 82.6713 61.2001 82.511 60.6027 82.511C59.9627 82.511 59.4881 82.6713 59.1787 82.9917C58.8694 83.3122 58.6827 83.7682 58.6187 84.3598C58.5547 84.9884 58.5227 85.6232 58.5227 86.2641C58.5227 86.905 58.5547 87.5397 58.6187 88.1683C58.6721 88.6613 58.8214 89.1112 59.0667 89.5179C59.3121 89.9247 59.7067 90.202 60.2507 90.3499L62.5227 90.9785C63.7174 91.3113 64.6561 91.8043 65.3387 92.4575C66.0321 93.0984 66.5281 93.8996 66.8267 94.8609C67.1361 95.81 67.3121 96.9192 67.3547 98.1887C67.3654 98.4722 67.3707 98.768 67.3707 99.0762C67.3707 99.3843 67.3654 99.6924 67.3547 100.001C67.3441 100.309 67.3334 100.604 67.3227 100.888C67.2267 103.55 66.6721 105.454 65.6587 106.601C64.6561 107.747 62.9707 108.32 60.6027 108.32Z" fill="#0C0C0C"/>
<path d="M39.1562 107.951V78.3701H45.0762C47.4656 78.3701 49.2096 78.9309 50.3083 80.0525C51.4069 81.1618 51.9563 83.0044 51.9563 85.5804C51.9563 85.9255 51.9563 86.2583 51.9563 86.5787C51.9563 86.8992 51.9456 87.2196 51.9243 87.5401C51.8496 88.8835 51.5883 89.9558 51.1403 90.757C50.6923 91.5458 49.9936 92.1251 49.0443 92.4948V93.3823C50.0256 93.752 50.7456 94.3436 51.2043 95.1571C51.6629 95.9582 51.9136 97.0552 51.9563 98.4479C51.9776 98.8547 51.9883 99.2306 51.9883 99.5757C51.9883 99.9208 51.9776 100.309 51.9563 100.74C51.8603 103.304 51.2843 105.147 50.2283 106.268C49.1829 107.39 47.4656 107.951 45.0762 107.951H39.1562ZM43.9563 103.07H45.0762C45.7482 103.07 46.2602 102.867 46.6122 102.46C46.9749 102.041 47.1562 101.443 47.1562 100.666C47.1562 100.334 47.1562 100.007 47.1562 99.6866C47.1562 99.3662 47.1562 99.0395 47.1562 98.7068C47.1562 97.4866 46.9909 96.6238 46.6602 96.1185C46.3402 95.6008 45.8122 95.342 45.0762 95.342H43.9563V103.07ZM43.9563 90.4612H45.0762C45.7482 90.4612 46.2602 90.1962 46.6122 89.6662C46.9749 89.1239 47.1562 88.3659 47.1562 87.3922C47.1562 87.0348 47.1562 86.6835 47.1562 86.3384C47.1562 85.9809 47.1562 85.6297 47.1562 85.2846C47.1562 84.6313 46.9749 84.1322 46.6122 83.7871C46.2602 83.4296 45.7482 83.2509 45.0762 83.2509H43.9563V90.4612Z" fill="#0C0C0C"/>
<path d="M22.916 107.951L26.468 78.3701H34.02L37.572 107.951H32.644L32.1 101.776H28.388L27.844 107.951H22.916ZM28.836 96.8949H31.652L31.076 90.3502L30.692 83.2509H29.796L29.412 90.3502L28.836 96.8949Z" fill="#0C0C0C"/>
<path d="M11 107.951V78.3701H15.8V103.07H22.104V107.951H11Z" fill="#0C0C0C"/>
<path d="M71.8547 73.9507V66.9253V66.8883L67.0547 44.3701H71.9507L73.3267 51.5434L73.8067 60.2327H74.7027L75.1827 51.5434L76.5587 44.3701H81.4547L76.6547 66.8883V66.9253V73.9507H71.8547Z" fill="#0C0C0C"/>
<path d="M44.25 73.9507V44.3701H51.962L54.074 55.5738L54.49 69.0699H55.322L55.706 55.5738L57.85 44.3701H65.53V73.9507H60.73V64.8547L61.658 49.2509H60.794L59.45 65.2244L57.466 73.9507H52.314L50.362 65.2244L48.986 49.2509H48.154L49.05 64.8547V73.9507H44.25Z" fill="#0C0C0C"/>
<path d="M35.0308 74.3201C32.6842 74.3201 30.9828 73.747 29.9268 72.6007C28.8815 71.4545 28.3322 69.5502 28.2788 66.888C28.2575 65.6801 28.2415 64.4229 28.2308 63.1164C28.2202 61.81 28.2148 60.485 28.2148 59.1416C28.2148 57.7981 28.2202 56.4731 28.2308 55.1667C28.2415 53.8602 28.2575 52.603 28.2788 51.3951C28.3322 48.7452 28.8815 46.8533 29.9268 45.7194C30.9828 44.5731 32.6842 44 35.0308 44C37.3882 44 39.0788 44.5731 40.1028 45.7194C41.1268 46.8533 41.6762 48.7452 41.7508 51.3951C41.7935 52.6277 41.8255 53.8972 41.8468 55.2036C41.8682 56.5101 41.8788 57.8351 41.8788 59.1785C41.8788 60.5097 41.8682 61.8285 41.8468 63.1349C41.8255 64.4291 41.7935 65.6801 41.7508 66.888C41.6762 69.5502 41.1268 71.4545 40.1028 72.6007C39.0788 73.747 37.3882 74.3201 35.0308 74.3201ZM35.0308 69.809C35.6602 69.809 36.1348 69.6488 36.4548 69.3284C36.7748 68.9956 36.9402 68.5272 36.9508 67.9233C37.0042 66.6661 37.0415 65.2857 37.0628 63.782C37.0842 62.2783 37.0948 60.7315 37.0948 59.1416C37.0948 57.5516 37.0842 56.0048 37.0628 54.5011C37.0415 52.9974 37.0042 51.617 36.9508 50.3598C36.9402 49.7682 36.7695 49.3122 36.4388 48.9917C36.1082 48.6713 35.6388 48.511 35.0308 48.511C34.4228 48.511 33.9482 48.6713 33.6068 48.9917C33.2762 49.3122 33.1002 49.7682 33.0788 50.3598C33.0362 51.617 32.9988 52.9974 32.9668 54.5011C32.9455 56.0048 32.9348 57.5516 32.9348 59.1416C32.9348 60.7315 32.9455 62.2783 32.9668 63.782C32.9988 65.2857 33.0362 66.6661 33.0788 67.9233C33.1002 68.5272 33.2762 68.9956 33.6068 69.3284C33.9482 69.6488 34.4228 69.809 35.0308 69.809Z" fill="#0C0C0C"/>
<path d="M11 73.9507V44.3701H17.944L19.864 53.7989L21.624 69.0699H22.456L21.56 57.0528L21.176 44.3701H25.816V73.9507H18.52L16.6 64.263L15.288 49.2139H14.392L15.224 62.5991L15.64 73.9507H11Z" fill="#0C0C0C"/>
<path d="M46.4097 41.3201C44.0631 41.3201 42.3618 40.747 41.3057 39.6007C40.2604 38.4545 39.7111 36.5502 39.6577 33.888C39.6364 32.6801 39.6204 31.4229 39.6097 30.1164C39.5991 28.81 39.5938 27.485 39.5938 26.1416C39.5938 24.7981 39.5991 23.4731 39.6097 22.1667C39.6204 20.8602 39.6364 19.603 39.6577 18.3951C39.7111 15.7452 40.2604 13.8533 41.3057 12.7194C42.3618 11.5731 44.0631 11 46.4097 11C48.7671 11 50.4577 11.5731 51.4817 12.7194C52.5057 13.8533 53.0551 15.7452 53.1298 18.3951C53.1724 19.6277 53.2044 20.8972 53.2257 22.2036C53.2471 23.5101 53.2577 24.8351 53.2577 26.1785C53.2577 27.5097 53.2471 28.8285 53.2257 30.1349C53.2044 31.4291 53.1724 32.6801 53.1298 33.888C53.0551 36.5502 52.5057 38.4545 51.4817 39.6007C50.4577 40.747 48.7671 41.3201 46.4097 41.3201ZM46.4097 36.809C47.0391 36.809 47.5137 36.6488 47.8337 36.3284C48.1537 35.9956 48.3191 35.5272 48.3298 34.9233C48.3831 33.6661 48.4204 32.2857 48.4418 30.782C48.4631 29.2783 48.4737 27.7315 48.4737 26.1416C48.4737 24.5516 48.4631 23.0048 48.4418 21.5011C48.4204 19.9974 48.3831 18.617 48.3298 17.3598C48.3191 16.7682 48.1484 16.3122 47.8178 15.9917C47.4871 15.6713 47.0178 15.511 46.4097 15.511C45.8017 15.511 45.3271 15.6713 44.9858 15.9917C44.6551 16.3122 44.4791 16.7682 44.4578 17.3598C44.4151 18.617 44.3778 19.9974 44.3458 21.5011C44.3244 23.0048 44.3137 24.5516 44.3137 26.1416C44.3137 27.7315 44.3244 29.2783 44.3458 30.782C44.3778 32.2857 44.4151 33.6661 44.4578 34.9233C44.4791 35.5272 44.6551 35.9956 44.9858 36.3284C45.3271 36.6488 45.8017 36.809 46.4097 36.809Z" fill="#0C0C0C"/>
<path d="M29.7155 40.9507V16.2509H25.6035V11.3701H38.6275V16.2509H34.5155V40.9507H29.7155Z" fill="#0C0C0C"/>
<path d="M17.816 41.3201C15.4693 41.3201 13.768 40.747 12.712 39.6007C11.6667 38.4545 11.1173 36.5502 11.064 33.888C11.0427 32.6801 11.0267 31.4229 11.016 30.1164C11.0053 28.81 11 27.485 11 26.1416C11 24.7981 11.0053 23.4731 11.016 22.1667C11.0267 20.8602 11.0427 19.603 11.064 18.3951C11.1173 15.7452 11.6667 13.8533 12.712 12.7194C13.768 11.5731 15.4693 11 17.816 11C20.1733 11 21.864 11.5731 22.888 12.7194C23.912 13.8533 24.4613 15.7452 24.536 18.3951C24.5787 19.6277 24.6107 20.8972 24.632 22.2036C24.6533 23.5101 24.664 24.8351 24.664 26.1785C24.664 27.5097 24.6533 28.8285 24.632 30.1349C24.6107 31.4291 24.5787 32.6801 24.536 33.888C24.4613 36.5502 23.912 38.4545 22.888 39.6007C21.864 40.747 20.1733 41.3201 17.816 41.3201ZM17.816 36.809C18.4453 36.809 18.92 36.6488 19.24 36.3284C19.56 35.9956 19.7253 35.5272 19.736 34.9233C19.7893 33.6661 19.8267 32.2857 19.848 30.782C19.8693 29.2783 19.88 27.7315 19.88 26.1416C19.88 24.5516 19.8693 23.0048 19.848 21.5011C19.8267 19.9974 19.7893 18.617 19.736 17.3598C19.7253 16.7682 19.5547 16.3122 19.224 15.9917C18.8933 15.6713 18.424 15.511 17.816 15.511C17.208 15.511 16.7333 15.6713 16.392 15.9917C16.0613 16.3122 15.8853 16.7682 15.864 17.3598C15.8213 18.617 15.784 19.9974 15.752 21.5011C15.7307 23.0048 15.72 24.5516 15.72 26.1416C15.72 27.7315 15.7307 29.2783 15.752 30.782C15.784 32.2857 15.8213 33.6661 15.864 34.9233C15.8853 35.5272 16.0613 35.9956 16.392 36.3284C16.7333 36.6488 17.208 36.809 17.816 36.809Z" fill="#0C0C0C"/>
</svg>
